<svg xmlns="http://www.w3.org/2000/svg" xmlns:xlink="http://www.w3.org/1999/xlink" width="512" zoomAndPan="magnify" viewBox="0 0 384 383.999986" height="512" preserveAspectRatio="xMidYMid meet" version="1.0"><defs><clipPath id="9b49f9b599"><path d="M 115.199219 121 L 268.949219 121 L 268.949219 263 L 115.199219 263 Z M 115.199219 121 " clip-rule="nonzero"/></clipPath></defs><g clip-path="url(#9b49f9b599)"><path fill="#ffffff" d="M 122.46875 127.191406 L 261.503906 127.191406 C 262.183594 127.191406 262.730469 127.722656 262.730469 128.402344 L 262.730469 222.507812 C 262.730469 223.175781 262.183594 223.707031 261.503906 223.707031 L 122.46875 223.707031 C 121.800781 223.707031 121.253906 223.175781 121.253906 222.507812 L 121.253906 128.402344 C 121.253906 127.722656 121.800781 127.191406 122.46875 127.191406 Z M 118.242188 121.136719 C 116.5625 121.136719 115.199219 122.484375 115.199219 124.164062 L 115.199219 226.761719 C 115.199219 228.4375 116.5625 229.789062 118.226562 229.789062 C 118.242188 229.789062 118.242188 229.789062 118.242188 229.789062 L 176.632812 229.789062 C 178.308594 229.789062 179.671875 231.152344 179.671875 232.828125 L 179.671875 238.339844 C 179.671875 248.386719 171.515625 256.542969 161.46875 256.542969 L 160.035156 256.542969 L 160.035156 262.761719 L 223.960938 262.761719 L 223.960938 256.542969 L 222.53125 256.542969 C 212.480469 256.542969 204.324219 248.386719 204.324219 238.339844 L 204.324219 232.828125 C 204.324219 231.152344 205.691406 229.789062 207.367188 229.789062 L 265.769531 229.789062 C 267.433594 229.789062 268.796875 228.4375 268.796875 226.761719 L 268.796875 124.164062 C 268.796875 122.484375 267.433594 121.136719 265.769531 121.136719 L 118.242188 121.136719 " fill-opacity="1" fill-rule="nonzero"/></g><path fill="#ffffff" d="M 141.328125 201.589844 C 140.359375 201.601562 139.59375 202.394531 139.609375 203.359375 C 139.621094 204.300781 140.386719 205.066406 141.328125 205.078125 L 173.179688 205.078125 C 174.148438 205.066406 174.914062 204.273438 174.898438 203.320312 C 174.886719 202.367188 174.121094 201.601562 173.179688 201.589844 L 141.328125 201.589844 " fill-opacity="1" fill-rule="nonzero"/><path fill="#ffffff" d="M 141.328125 194.210938 C 140.359375 194.226562 139.59375 195.015625 139.609375 195.984375 C 139.621094 196.925781 140.386719 197.6875 141.328125 197.703125 L 173.179688 197.703125 C 174.148438 197.6875 174.914062 196.898438 174.898438 195.941406 C 174.886719 194.988281 174.121094 194.226562 173.179688 194.210938 L 141.328125 194.210938 " fill-opacity="1" fill-rule="nonzero"/><path fill="#ffffff" d="M 159 140.933594 L 159 162.042969 L 177.273438 172.585938 C 182.535156 161.527344 177.859375 148.296875 166.800781 143.035156 C 164.34375 141.863281 161.699219 141.152344 159 140.933594 " fill-opacity="1" fill-rule="nonzero"/><path fill="#ffffff" d="M 155.507812 140.933594 L 155.507812 164.046875 L 175.527344 175.613281 C 168.585938 185.703125 154.785156 188.253906 144.695312 181.3125 C 134.605469 174.371094 132.039062 160.570312 138.980469 150.480469 C 142.773438 144.972656 148.839844 141.464844 155.507812 140.933594 " fill-opacity="1" fill-rule="nonzero"/><path fill="#ffffff" d="M 223.59375 168.464844 L 215.984375 156.410156 C 214.960938 154.777344 212.808594 154.296875 211.171875 155.320312 C 210.859375 155.511719 210.585938 155.757812 210.351562 156.042969 L 200.535156 167.867188 L 197.835938 165.628906 L 207.667969 153.808594 C 210.136719 150.847656 214.539062 150.4375 217.5 152.90625 C 218.058594 153.371094 218.546875 153.929688 218.945312 154.542969 L 226.554688 166.597656 C 227.589844 168.234375 229.730469 168.726562 231.367188 167.6875 C 231.734375 167.457031 232.046875 167.171875 232.292969 166.828125 L 243.585938 151.75 L 241.90625 150.492188 L 248.289062 148.367188 L 248.042969 155.101562 L 246.378906 153.847656 L 235.089844 168.917969 C 232.785156 172.011719 228.40625 172.640625 225.324219 170.335938 C 224.644531 169.816406 224.058594 169.1875 223.609375 168.464844 L 223.59375 168.464844 " fill-opacity="1" fill-rule="nonzero"/><path fill="#ffffff" d="M 240.285156 167.5 L 246.9375 167.5 L 246.9375 199.160156 L 240.285156 199.160156 L 240.285156 167.5 " fill-opacity="1" fill-rule="nonzero"/><path fill="#ffffff" d="M 224.863281 199.160156 L 224.863281 181.148438 L 231.53125 181.148438 L 231.53125 199.160156 L 224.863281 199.160156 " fill-opacity="1" fill-rule="nonzero"/><path fill="#ffffff" d="M 209.441406 199.160156 L 209.441406 163.503906 L 216.109375 163.503906 L 216.109375 199.160156 L 209.441406 199.160156 " fill-opacity="1" fill-rule="nonzero"/><path fill="#ffffff" d="M 200.683594 199.160156 L 194.03125 199.160156 L 194.03125 173.550781 L 200.683594 173.550781 L 200.683594 199.160156 " fill-opacity="1" fill-rule="nonzero"/></svg>