<svg xmlns="http://www.w3.org/2000/svg" xmlns:xlink="http://www.w3.org/1999/xlink" width="512" zoomAndPan="magnify" viewBox="0 0 384 383.999986" height="512" preserveAspectRatio="xMidYMid meet" version="1.0"><defs><clipPath id="a8ae0fe602"><path d="M 122.878906 115.199219 L 260.878906 115.199219 L 260.878906 268.949219 L 122.878906 268.949219 Z M 122.878906 115.199219 " clip-rule="nonzero"/></clipPath></defs><g clip-path="url(#a8ae0fe602)"><path fill="#ffffff" d="M 222.714844 137.746094 C 245.863281 149.226562 261.113281 173.003906 261.113281 199.679688 C 261.113281 237.851562 230.167969 268.796875 191.996094 268.796875 C 153.824219 268.796875 122.878906 237.851562 122.878906 199.679688 C 122.878906 173.003906 138.132812 149.226562 161.277344 137.746094 L 161.277344 165.320312 C 151.75 173.851562 145.917969 186.210938 145.917969 199.679688 C 145.917969 225.125 166.546875 245.757812 191.996094 245.757812 C 217.445312 245.757812 238.074219 225.125 238.074219 199.679688 C 238.074219 186.210938 232.246094 173.851562 222.714844 165.320312 Z M 203.515625 192 L 180.476562 192 L 180.476562 115.203125 L 203.515625 115.203125 Z M 203.515625 192 " fill-opacity="1" fill-rule="nonzero"/></g></svg>