<svg xmlns="http://www.w3.org/2000/svg" xmlns:xlink="http://www.w3.org/1999/xlink" width="512" zoomAndPan="magnify" viewBox="0 0 384 383.999986" height="512" preserveAspectRatio="xMidYMid meet" version="1.0"><defs><clipPath id="3c4913625c"><path d="M 158 120.289062 L 226 120.289062 L 226 217 L 158 217 Z M 158 120.289062 " clip-rule="nonzero"/></clipPath><clipPath id="9e2e60a470"><path d="M 115.199219 224 L 268.796875 224 L 268.796875 263.296875 L 115.199219 263.296875 Z M 115.199219 224 " clip-rule="nonzero"/></clipPath></defs><g clip-path="url(#3c4913625c)"><path fill="#ffffff" d="M 198.296875 207.082031 L 185.582031 207.082031 L 188.796875 185.0625 C 186.699219 183.945312 185.265625 181.726562 185.265625 179.179688 C 185.265625 175.492188 188.257812 172.503906 191.933594 172.503906 C 195.621094 172.503906 198.609375 175.492188 198.609375 179.179688 C 198.609375 181.726562 197.179688 183.945312 195.082031 185.0625 Z M 177.082031 145.210938 C 177.082031 136.984375 183.769531 130.289062 192.003906 130.289062 C 200.226562 130.289062 206.925781 136.984375 206.925781 145.210938 L 206.925781 162.316406 L 177.082031 162.316406 Z M 219.707031 162.316406 L 216.628906 162.316406 L 216.628906 145.210938 C 216.628906 131.632812 205.582031 120.582031 192.003906 120.582031 C 178.425781 120.582031 167.375 131.632812 167.375 145.210938 L 167.375 162.316406 L 164.289062 162.316406 C 161.003906 162.316406 158.335938 164.984375 158.335938 168.269531 L 158.335938 210.226562 C 158.335938 213.511719 161.003906 216.179688 164.289062 216.179688 L 219.707031 216.179688 C 223.003906 216.179688 225.667969 213.511719 225.667969 210.226562 L 225.667969 168.269531 C 225.667969 164.984375 223.003906 162.316406 219.707031 162.316406 " fill-opacity="1" fill-rule="nonzero"/></g><g clip-path="url(#9e2e60a470)"><path fill="#ffffff" d="M 264.226562 254.453125 C 264.226562 256.804688 262.304688 258.726562 259.953125 258.726562 L 124.054688 258.726562 C 121.691406 258.726562 119.769531 256.804688 119.769531 254.453125 L 119.769531 233.324219 C 119.769531 230.964844 121.691406 229.042969 124.054688 229.042969 L 259.953125 229.042969 C 262.304688 229.042969 264.226562 230.964844 264.226562 233.324219 Z M 259.953125 224.472656 L 124.054688 224.472656 C 119.160156 224.472656 115.199219 228.433594 115.199219 233.324219 L 115.199219 254.453125 C 115.199219 259.335938 119.160156 263.296875 124.054688 263.296875 L 259.953125 263.296875 C 264.835938 263.296875 268.796875 259.335938 268.796875 254.453125 L 268.796875 233.324219 C 268.796875 228.433594 264.835938 224.472656 259.953125 224.472656 " fill-opacity="1" fill-rule="nonzero"/></g><path fill="#ffffff" d="M 156.003906 239.160156 L 154.542969 236.726562 C 154.101562 235.992188 153.082031 235.84375 152.347656 236.238281 L 148.933594 238.1875 L 148.933594 234.777344 C 148.933594 233.796875 148.199219 233.0625 147.230469 233.0625 L 144.542969 233.0625 C 143.570312 233.0625 142.835938 233.796875 142.835938 234.777344 L 142.835938 238.1875 L 139.425781 236.238281 C 138.691406 235.84375 137.671875 235.992188 137.230469 236.726562 L 135.769531 239.160156 C 135.277344 239.941406 135.523438 240.914062 136.257812 241.355469 L 139.671875 243.304688 L 136.257812 245.257812 C 135.523438 245.699219 135.328125 246.71875 135.769531 247.453125 L 137.230469 249.894531 C 137.71875 250.621094 138.691406 250.816406 139.425781 250.375 L 142.835938 248.421875 L 142.835938 251.84375 C 142.835938 252.816406 143.570312 253.550781 144.542969 253.550781 L 147.230469 253.550781 C 148.199219 253.550781 148.933594 252.816406 148.933594 251.84375 L 148.933594 248.421875 L 152.347656 250.375 C 153.082031 250.816406 154.050781 250.621094 154.542969 249.894531 L 156.003906 247.453125 C 156.445312 246.71875 156.25 245.699219 155.523438 245.257812 L 152.101562 243.304688 L 155.523438 241.355469 C 156.25 240.914062 156.492188 239.941406 156.003906 239.160156 " fill-opacity="1" fill-rule="nonzero"/><path fill="#ffffff" d="M 185.121094 239.160156 L 183.660156 236.726562 C 183.21875 235.992188 182.199219 235.84375 181.464844 236.238281 L 178.050781 238.1875 L 178.050781 234.777344 C 178.050781 233.796875 177.316406 233.0625 176.347656 233.0625 L 173.660156 233.0625 C 172.6875 233.0625 171.953125 233.796875 171.953125 234.777344 L 171.953125 238.1875 L 168.542969 236.238281 C 167.808594 235.84375 166.789062 235.992188 166.347656 236.726562 L 164.886719 239.160156 C 164.394531 239.941406 164.640625 240.914062 165.375 241.355469 L 168.789062 243.304688 L 165.375 245.257812 C 164.640625 245.699219 164.445312 246.71875 164.886719 247.453125 L 166.347656 249.894531 C 166.835938 250.621094 167.808594 250.816406 168.542969 250.375 L 171.953125 248.421875 L 171.953125 251.84375 C 171.953125 252.816406 172.6875 253.550781 173.660156 253.550781 L 176.347656 253.550781 C 177.316406 253.550781 178.050781 252.816406 178.050781 251.84375 L 178.050781 248.421875 L 181.464844 250.375 C 182.199219 250.816406 183.167969 250.621094 183.660156 249.894531 L 185.121094 247.453125 C 185.5625 246.71875 185.367188 245.699219 184.640625 245.257812 L 181.21875 243.304688 L 184.640625 241.355469 C 185.367188 240.914062 185.609375 239.941406 185.121094 239.160156 " fill-opacity="1" fill-rule="nonzero"/><path fill="#ffffff" d="M 214.238281 239.160156 L 212.777344 236.726562 C 212.335938 235.992188 211.316406 235.84375 210.582031 236.238281 L 207.167969 238.1875 L 207.167969 234.777344 C 207.167969 233.796875 206.433594 233.0625 205.464844 233.0625 L 202.777344 233.0625 C 201.804688 233.0625 201.070312 233.796875 201.070312 234.777344 L 201.070312 238.1875 L 197.660156 236.238281 C 196.925781 235.84375 195.90625 235.992188 195.464844 236.726562 L 194.003906 239.160156 C 193.511719 239.941406 193.757812 240.914062 194.484375 241.355469 L 197.90625 243.304688 L 194.484375 245.257812 C 193.757812 245.699219 193.5625 246.71875 194.003906 247.453125 L 195.464844 249.894531 C 195.953125 250.621094 196.925781 250.816406 197.660156 250.375 L 201.070312 248.421875 L 201.070312 251.84375 C 201.070312 252.816406 201.804688 253.550781 202.777344 253.550781 L 205.464844 253.550781 C 206.433594 253.550781 207.167969 252.816406 207.167969 251.84375 L 207.167969 248.421875 L 210.582031 250.375 C 211.316406 250.816406 212.285156 250.621094 212.777344 249.894531 L 214.238281 247.453125 C 214.679688 246.71875 214.484375 245.699219 213.746094 245.257812 L 210.335938 243.304688 L 213.746094 241.355469 C 214.484375 240.914062 214.726562 239.941406 214.238281 239.160156 " fill-opacity="1" fill-rule="nonzero"/><path fill="#ffffff" d="M 245.570312 251.148438 C 245.570312 251.914062 245 252.480469 244.238281 252.480469 L 226.304688 252.480469 C 225.542969 252.480469 224.972656 251.914062 224.972656 251.148438 L 224.972656 247.71875 C 224.972656 246.953125 225.542969 246.382812 226.304688 246.382812 L 244.238281 246.382812 C 245 246.382812 245.570312 246.953125 245.570312 247.71875 L 245.570312 251.148438 " fill-opacity="1" fill-rule="nonzero"/></svg>